<mxfile host="app.diagrams.net" modified="2023-08-15T11:54:24.327Z" agent="Mozilla/5.0 (Macintosh; Intel Mac OS X 10.15; rv:109.0) Gecko/20100101 Firefox/115.0" etag="R1H8-Bqsxt_3H-bijc3a" version="21.6.8" type="device">
  <diagram name="Page-1" id="DlKGv5u0EKhqxEp20oxr">
    <mxGraphModel dx="954" dy="589" grid="1" gridSize="10" guides="1" tooltips="1" connect="1" arrows="1" fold="1" page="1" pageScale="1" pageWidth="850" pageHeight="1100" math="0" shadow="0">
      <root>
        <mxCell id="0" />
        <mxCell id="1" parent="0" />
        <mxCell id="bjsOqJ16k2Kbt-2lkNS1-14" style="rounded=0;orthogonalLoop=1;jettySize=auto;html=1;exitX=1;exitY=0;exitDx=0;exitDy=0;entryX=0.25;entryY=1;entryDx=0;entryDy=0;startArrow=classic;startFill=1;shadow=0;fontFamily=Helvetica;" parent="1" source="bjsOqJ16k2Kbt-2lkNS1-1" target="bjsOqJ16k2Kbt-2lkNS1-3" edge="1">
          <mxGeometry relative="1" as="geometry" />
        </mxCell>
        <mxCell id="bjsOqJ16k2Kbt-2lkNS1-18" value="Admin API" style="edgeLabel;html=1;align=center;verticalAlign=middle;resizable=0;points=[];fontSize=11;fontFamily=Helvetica;fontColor=default;labelBackgroundColor=none;" parent="bjsOqJ16k2Kbt-2lkNS1-14" vertex="1" connectable="0">
          <mxGeometry x="-0.0805" y="-4" relative="1" as="geometry">
            <mxPoint x="-32" y="-11" as="offset" />
          </mxGeometry>
        </mxCell>
        <mxCell id="bjsOqJ16k2Kbt-2lkNS1-15" style="edgeStyle=none;shape=connector;rounded=0;orthogonalLoop=1;jettySize=auto;html=1;exitX=0;exitY=0;exitDx=0;exitDy=0;labelBackgroundColor=default;fontFamily=Helvetica;fontSize=11;fontColor=default;startArrow=classic;startFill=1;endArrow=classic;shadow=0;entryX=0.7;entryY=0.989;entryDx=0;entryDy=0;entryPerimeter=0;" parent="1" source="bjsOqJ16k2Kbt-2lkNS1-1" target="bjsOqJ16k2Kbt-2lkNS1-2" edge="1">
          <mxGeometry relative="1" as="geometry">
            <mxPoint x="350" y="390" as="targetPoint" />
          </mxGeometry>
        </mxCell>
        <mxCell id="bjsOqJ16k2Kbt-2lkNS1-24" style="edgeStyle=none;shape=connector;rounded=0;orthogonalLoop=1;jettySize=auto;html=1;exitX=0.5;exitY=1;exitDx=0;exitDy=0;entryX=0.5;entryY=0;entryDx=0;entryDy=0;labelBackgroundColor=default;strokeColor=default;fontFamily=Helvetica;fontSize=11;fontColor=default;startArrow=block;startFill=0;endArrow=block;startSize=6;endSize=6;targetPerimeterSpacing=0;dashed=1;endFill=0;" parent="1" source="bjsOqJ16k2Kbt-2lkNS1-1" target="bjsOqJ16k2Kbt-2lkNS1-6" edge="1">
          <mxGeometry relative="1" as="geometry" />
        </mxCell>
        <mxCell id="bjsOqJ16k2Kbt-2lkNS1-26" value="Sync API" style="edgeLabel;html=1;align=center;verticalAlign=middle;resizable=0;points=[];fontSize=11;fontFamily=Helvetica;fontColor=default;" parent="bjsOqJ16k2Kbt-2lkNS1-24" vertex="1" connectable="0">
          <mxGeometry x="0.002" relative="1" as="geometry">
            <mxPoint y="8" as="offset" />
          </mxGeometry>
        </mxCell>
        <mxCell id="bjsOqJ16k2Kbt-2lkNS1-27" value="Sales Channel API" style="edgeLabel;html=1;align=center;verticalAlign=middle;resizable=0;points=[];fontSize=11;fontFamily=Helvetica;fontColor=default;" parent="bjsOqJ16k2Kbt-2lkNS1-24" vertex="1" connectable="0">
          <mxGeometry x="-0.19" y="3" relative="1" as="geometry">
            <mxPoint x="-3" y="-3" as="offset" />
          </mxGeometry>
        </mxCell>
        <mxCell id="bjsOqJ16k2Kbt-2lkNS1-25" style="edgeStyle=none;shape=connector;rounded=0;orthogonalLoop=1;jettySize=auto;html=1;exitX=0.959;exitY=0.689;exitDx=0;exitDy=0;entryX=0;entryY=0.5;entryDx=0;entryDy=0;labelBackgroundColor=default;strokeColor=default;fontFamily=Helvetica;fontSize=11;fontColor=default;startArrow=block;startFill=0;endArrow=block;startSize=6;endSize=6;targetPerimeterSpacing=0;dashed=1;endFill=0;exitPerimeter=0;" parent="1" source="bjsOqJ16k2Kbt-2lkNS1-1" target="bjsOqJ16k2Kbt-2lkNS1-5" edge="1">
          <mxGeometry relative="1" as="geometry" />
        </mxCell>
        <mxCell id="bjsOqJ16k2Kbt-2lkNS1-30" style="edgeStyle=none;shape=connector;rounded=0;orthogonalLoop=1;jettySize=auto;html=1;entryX=1;entryY=0.5;entryDx=0;entryDy=0;labelBackgroundColor=default;strokeColor=default;fontFamily=Helvetica;fontSize=11;fontColor=default;startArrow=block;startFill=0;endArrow=block;startSize=6;endSize=6;targetPerimeterSpacing=0;dashed=1;endFill=0;exitX=0.033;exitY=0.689;exitDx=0;exitDy=0;exitPerimeter=0;" parent="1" source="bjsOqJ16k2Kbt-2lkNS1-1" target="bjsOqJ16k2Kbt-2lkNS1-29" edge="1">
          <mxGeometry relative="1" as="geometry">
            <mxPoint x="400" y="499" as="sourcePoint" />
          </mxGeometry>
        </mxCell>
        <mxCell id="bjsOqJ16k2Kbt-2lkNS1-31" value="Store API" style="edgeLabel;html=1;align=center;verticalAlign=middle;resizable=0;points=[];fontSize=11;fontFamily=Helvetica;fontColor=default;" parent="bjsOqJ16k2Kbt-2lkNS1-30" vertex="1" connectable="0">
          <mxGeometry x="0.1474" y="1" relative="1" as="geometry">
            <mxPoint x="5" y="-15" as="offset" />
          </mxGeometry>
        </mxCell>
        <mxCell id="bjsOqJ16k2Kbt-2lkNS1-1" value="&lt;div style=&quot;font-size: 14px;&quot;&gt;&lt;font style=&quot;font-size: 14px;&quot;&gt;Shopware&lt;/font&gt;&lt;/div&gt;&lt;div style=&quot;font-size: 14px;&quot;&gt;&lt;font style=&quot;font-size: 14px;&quot;&gt;Core&lt;font style=&quot;font-size: 14px;&quot;&gt;&lt;br&gt;&lt;/font&gt;&lt;/font&gt;&lt;/div&gt;" style="ellipse;whiteSpace=wrap;html=1;aspect=fixed;shadow=0;spacingTop=5;fontFamily=Helvetica;" parent="1" vertex="1">
          <mxGeometry x="400" y="440" width="80" height="80" as="geometry" />
        </mxCell>
        <mxCell id="bjsOqJ16k2Kbt-2lkNS1-2" value="Storefront" style="rounded=0;whiteSpace=wrap;html=1;shadow=0;fontFamily=Helvetica;" parent="1" vertex="1">
          <mxGeometry x="280" y="360" width="100" height="40" as="geometry" />
        </mxCell>
        <mxCell id="bjsOqJ16k2Kbt-2lkNS1-3" value="&lt;div&gt;Administration&lt;/div&gt;" style="rounded=0;whiteSpace=wrap;html=1;shadow=0;fontFamily=Helvetica;" parent="1" vertex="1">
          <mxGeometry x="510" y="360" width="110" height="40" as="geometry" />
        </mxCell>
        <mxCell id="bjsOqJ16k2Kbt-2lkNS1-5" value="Plugins" style="rounded=1;whiteSpace=wrap;html=1;shadow=0;dashed=1;" parent="1" vertex="1">
          <mxGeometry x="560" y="490" width="90" height="40" as="geometry" />
        </mxCell>
        <mxCell id="bjsOqJ16k2Kbt-2lkNS1-6" value="Third-Party Software" style="rounded=1;whiteSpace=wrap;html=1;shadow=0;dashed=1;fontFamily=Helvetica;" parent="1" vertex="1">
          <mxGeometry x="360" y="590" width="160" height="40" as="geometry" />
        </mxCell>
        <mxCell id="bjsOqJ16k2Kbt-2lkNS1-29" value="Custom Frontend" style="rounded=1;whiteSpace=wrap;html=1;shadow=0;dashed=1;" parent="1" vertex="1">
          <mxGeometry x="200" y="490" width="120" height="40" as="geometry" />
        </mxCell>
      </root>
    </mxGraphModel>
  </diagram>
</mxfile>
